<?xml version="1.0" encoding="UTF-8" standalone="no"?>
<svg
   xmlns:dc="http://purl.org/dc/elements/1.1/"
   xmlns:cc="http://creativecommons.org/ns#"
   xmlns:rdf="http://www.w3.org/1999/02/22-rdf-syntax-ns#"
   xmlns:svg="http://www.w3.org/2000/svg"
   xmlns="http://www.w3.org/2000/svg"
   xmlns:sodipodi="http://sodipodi.sourceforge.net/DTD/sodipodi-0.dtd"
   xmlns:inkscape="http://www.inkscape.org/namespaces/inkscape"
   width="28.928709"
   height="43.071289"
   viewBox="0 0 7.654054 11.395945"
   version="1.1"
   id="svg8"
   inkscape:version="1.0.1 (3bc2e813f5, 2020-09-07)"
   sodipodi:docname="lock.svg">
  <defs
     id="defs2" />
  <sodipodi:namedview
     id="base"
     pagecolor="#ffffff"
     bordercolor="#666666"
     borderopacity="1.0"
     inkscape:pageopacity="0.0"
     inkscape:pageshadow="2"
     inkscape:zoom="2"
     inkscape:cx="24.383554"
     inkscape:cy="29.952308"
     inkscape:document-units="px"
     inkscape:current-layer="layer1"
     inkscape:document-rotation="0"
     showgrid="false"
     units="px"
     inkscape:snap-midpoints="true"
     inkscape:snap-smooth-nodes="true"
     inkscape:snap-center="true"
     inkscape:window-width="1267"
     inkscape:window-height="1041"
     inkscape:window-x="2"
     inkscape:window-y="29"
     inkscape:window-maximized="0" />
  <metadata
     id="metadata5">
    <rdf:RDF>
      <cc:Work
         rdf:about="">
        <dc:format>image/svg+xml</dc:format>
        <dc:type
           rdf:resource="http://purl.org/dc/dcmitype/StillImage" />
        <dc:title></dc:title>
      </cc:Work>
    </rdf:RDF>
  </metadata>
  <g
     inkscape:label="Layer 1"
     inkscape:groupmode="layer"
     id="layer1"
     transform="translate(-14.221225,-7.0963367)">
    <path
       id="rect833"
       style="fill:#000000;stroke:none;stroke-width:0.999999;stroke-linejoin:round;stroke-miterlimit:4;stroke-dasharray:none"
       d="M 14.464844 0 A 12 12 0 0 0 2.4648438 12 L 2.4648438 17 L 0 17 L 0 43.072266 L 28.927734 43.072266 L 28.927734 17 L 26.464844 17 L 26.464844 12 A 12 12 0 0 0 14.464844 0 z M 14.464844 4 A 7.9999996 7.9999996 0 0 1 22.464844 12 L 22.464844 17 L 6.4648438 17 L 6.4648438 12 A 7.9999996 7.9999996 0 0 1 14.464844 4 z M 14.404297 24.058594 A 4 4 0 0 1 14.464844 24.058594 A 4 4 0 0 1 18.464844 28.058594 A 4 4 0 0 1 15.833984 31.816406 L 15.833984 36.013672 L 13.09375 36.013672 L 13.09375 31.816406 A 4 4 0 0 1 10.464844 28.058594 A 4 4 0 0 1 14.404297 24.058594 z "
       transform="matrix(0.26458333,0,0,0.26458333,14.221225,7.0963367)" />
  </g>
</svg>
